<svg xmlns="http://www.w3.org/2000/svg" xmlns:xlink="http://www.w3.org/1999/xlink" width="400" zoomAndPan="magnify" viewBox="0 0 300 449.999984" height="600" preserveAspectRatio="xMidYMid meet" version="1.0"><defs><clipPath id="5f79b2a65d"><path d="M 0 426 L 24 426 L 24 449.792969 L 0 449.792969 Z M 0 426 " clip-rule="nonzero"/></clipPath><clipPath id="067de2d146"><path d="M 276 426 L 299.976562 426 L 299.976562 449.792969 L 276 449.792969 Z M 276 426 " clip-rule="nonzero"/></clipPath><clipPath id="6d97a7ec99"><path d="M 138 134 L 161.988281 134 L 161.988281 157.863281 L 138 157.863281 Z M 138 134 " clip-rule="nonzero"/></clipPath><clipPath id="05cd92fbcb"><path d="M 276 0 L 299.976562 0 L 299.976562 24 L 276 24 Z M 276 0 " clip-rule="nonzero"/></clipPath><clipPath id="f80b538143"><path d="M 239.035156 324.5 L 263 324.5 L 263 348 L 239.035156 348 Z M 239.035156 324.5 " clip-rule="nonzero"/></clipPath><clipPath id="217649b3e7"><path d="M 41 324.5 L 64.941406 324.5 L 64.941406 348 L 41 348 Z M 41 324.5 " clip-rule="nonzero"/></clipPath><clipPath id="b59a028c82"><path d="M 138 249.570312 L 161.988281 249.570312 L 161.988281 273 L 138 273 Z M 138 249.570312 " clip-rule="nonzero"/></clipPath></defs><rect x="-30" width="360" fill="#ffffff" y="-44.999998" height="539.99998" fill-opacity="1"/><rect x="-30" width="360" fill="#ffffff" y="-44.999998" height="539.99998" fill-opacity="1"/><g clip-path="url(#5f79b2a65d)"><path fill="#f5faf8" d="M 22.386719 436.542969 C 20.277344 435.890625 18.046875 435.585938 15.816406 435.441406 C 17.570312 434.203125 19.328125 432.976562 21.03125 431.667969 C 22.125 430.824219 20.710938 429.054688 19.554688 429.773438 C 17.433594 431.101562 15.378906 432.5625 13.371094 434.074219 C 13.550781 431.585938 13.554688 429.007812 12.902344 426.675781 C 12.65625 425.792969 11.484375 426.0625 11.394531 426.875 C 11.160156 429.035156 10.921875 431.1875 10.667969 433.34375 C 8.5625 431.1875 5.320312 428.492188 2.515625 429.800781 C 2.117188 429.984375 2.136719 430.523438 2.386719 430.804688 C 3.425781 431.972656 5.238281 432.640625 6.480469 433.613281 C 7.128906 434.125 7.726562 434.691406 8.296875 435.296875 C 5.738281 435.304688 3.085938 435.4375 0.773438 436.160156 C 0.140625 436.359375 0.0117188 437.441406 0.773438 437.558594 C 3.335938 437.96875 6.042969 437.785156 8.691406 437.714844 C 6.238281 439.667969 3.789062 441.757812 1.941406 444.242188 C 1.207031 445.234375 2.738281 446.230469 3.574219 445.496094 C 5.640625 443.667969 7.632812 441.800781 9.734375 440.03125 C 9.316406 442.539062 8.894531 445.101562 8.992188 447.566406 C 9.058594 449.21875 11.820312 449.792969 12.070312 447.980469 C 12.402344 445.558594 12.585938 443.101562 12.785156 440.648438 C 14.292969 442.402344 15.929688 444.039062 17.960938 445.207031 C 19.742188 446.226562 21.34375 443.496094 19.570312 442.472656 C 17.59375 441.328125 16.046875 439.644531 14.582031 437.886719 C 16.976562 438.082031 19.355469 438.429688 21.699219 439.039062 C 23.324219 439.460938 23.988281 437.039062 22.386719 436.542969 Z M 22.386719 436.542969 " fill-opacity="1" fill-rule="nonzero"/></g><g clip-path="url(#067de2d146)"><path fill="#f5faf8" d="M 298.363281 436.542969 C 296.253906 435.890625 294.023438 435.585938 291.792969 435.441406 C 293.546875 434.203125 295.304688 432.976562 297.007812 431.667969 C 298.101562 430.824219 296.6875 429.054688 295.53125 429.773438 C 293.40625 431.101562 291.355469 432.5625 289.347656 434.074219 C 289.527344 431.585938 289.53125 429.007812 288.878906 426.675781 C 288.632812 425.792969 287.460938 426.0625 287.371094 426.875 C 287.132812 429.035156 286.898438 431.1875 286.644531 433.34375 C 284.539062 431.1875 281.296875 428.492188 278.492188 429.800781 C 278.09375 429.984375 278.113281 430.523438 278.363281 430.804688 C 279.402344 431.972656 281.214844 432.640625 282.457031 433.613281 C 283.105469 434.125 283.703125 434.691406 284.273438 435.296875 C 281.714844 435.304688 279.0625 435.4375 276.75 436.160156 C 276.117188 436.359375 275.988281 437.441406 276.75 437.558594 C 279.3125 437.96875 282.019531 437.785156 284.667969 437.714844 C 282.214844 439.667969 279.765625 441.757812 277.917969 444.242188 C 277.183594 445.234375 278.714844 446.230469 279.550781 445.496094 C 281.617188 443.667969 283.609375 441.800781 285.710938 440.03125 C 285.292969 442.539062 284.871094 445.101562 284.96875 447.566406 C 285.035156 449.21875 287.796875 449.792969 288.046875 447.980469 C 288.378906 445.558594 288.5625 443.101562 288.761719 440.648438 C 290.269531 442.402344 291.90625 444.039062 293.9375 445.207031 C 295.71875 446.226562 297.320312 443.496094 295.546875 442.472656 C 293.570312 441.328125 292.023438 439.644531 290.554688 437.886719 C 292.953125 438.082031 295.332031 438.429688 297.675781 439.039062 C 299.300781 439.460938 299.964844 437.039062 298.363281 436.542969 Z M 298.363281 436.542969 " fill-opacity="1" fill-rule="nonzero"/></g><g clip-path="url(#6d97a7ec99)"><path fill="#f5faf8" d="M 160.375 144.613281 C 158.265625 143.957031 156.035156 143.65625 153.804688 143.511719 C 155.558594 142.273438 157.316406 141.042969 159.019531 139.738281 C 160.113281 138.894531 158.699219 137.125 157.542969 137.839844 C 155.421875 139.171875 153.367188 140.628906 151.359375 142.144531 C 151.539062 139.65625 151.542969 137.078125 150.890625 134.742188 C 150.644531 133.863281 149.472656 134.132812 149.382812 134.945312 C 149.148438 137.105469 148.910156 139.257812 148.65625 141.414062 C 146.550781 139.257812 143.308594 136.5625 140.503906 137.867188 C 140.105469 138.054688 140.125 138.589844 140.375 138.871094 C 141.414062 140.042969 143.226562 140.707031 144.46875 141.683594 C 145.117188 142.195312 145.714844 142.761719 146.285156 143.363281 C 143.726562 143.375 141.074219 143.507812 138.761719 144.230469 C 138.128906 144.429688 138 145.511719 138.761719 145.628906 C 141.324219 146.039062 144.03125 145.855469 146.679688 145.785156 C 144.226562 147.738281 141.777344 149.828125 139.929688 152.3125 C 139.195312 153.300781 140.726562 154.300781 141.5625 153.566406 C 143.628906 151.738281 145.621094 149.867188 147.722656 148.101562 C 147.304688 150.609375 146.882812 153.167969 146.980469 155.636719 C 147.046875 157.289062 149.808594 157.863281 150.058594 156.050781 C 150.390625 153.628906 150.574219 151.171875 150.773438 148.71875 C 152.28125 150.472656 153.917969 152.109375 155.949219 153.273438 C 157.730469 154.296875 159.332031 151.566406 157.558594 150.539062 C 155.582031 149.398438 154.035156 147.714844 152.570312 145.957031 C 154.964844 146.148438 157.34375 146.5 159.6875 147.105469 C 161.3125 147.53125 161.976562 145.109375 160.375 144.613281 Z M 160.375 144.613281 " fill-opacity="1" fill-rule="nonzero"/></g><path fill="#f5faf8" d="M 22.386719 10.746094 C 20.277344 10.09375 18.046875 9.789062 15.816406 9.648438 C 17.570312 8.410156 19.328125 7.179688 21.03125 5.875 C 22.125 5.03125 20.710938 3.257812 19.554688 3.976562 C 17.433594 5.308594 15.378906 6.765625 13.371094 8.28125 C 13.550781 5.789062 13.554688 3.214844 12.902344 0.878906 C 12.65625 0 11.484375 0.265625 11.394531 1.082031 C 11.160156 3.242188 10.921875 5.394531 10.667969 7.550781 C 8.5625 5.394531 5.320312 2.699219 2.515625 4.003906 C 2.117188 4.1875 2.136719 4.726562 2.386719 5.007812 C 3.425781 6.175781 5.238281 6.84375 6.480469 7.820312 C 7.128906 8.332031 7.726562 8.898438 8.296875 9.5 C 5.738281 9.511719 3.085938 9.644531 0.773438 10.367188 C 0.140625 10.5625 0.0117188 11.644531 0.773438 11.765625 C 3.335938 12.175781 6.042969 11.992188 8.691406 11.921875 C 6.238281 13.875 3.789062 15.964844 1.941406 18.449219 C 1.207031 19.4375 2.738281 20.4375 3.574219 19.699219 C 5.640625 17.875 7.632812 16.003906 9.734375 14.238281 C 9.316406 16.746094 8.894531 19.304688 8.992188 21.773438 C 9.058594 23.425781 11.820312 24 12.070312 22.1875 C 12.402344 19.765625 12.585938 17.308594 12.785156 14.855469 C 14.292969 16.609375 15.929688 18.246094 17.960938 19.410156 C 19.742188 20.433594 21.34375 17.703125 19.570312 16.675781 C 17.59375 15.535156 16.046875 13.851562 14.582031 12.09375 C 16.976562 12.285156 19.355469 12.636719 21.699219 13.242188 C 23.324219 13.667969 23.988281 11.246094 22.386719 10.746094 Z M 22.386719 10.746094 " fill-opacity="1" fill-rule="nonzero"/><g clip-path="url(#05cd92fbcb)"><path fill="#f5faf8" d="M 298.363281 10.746094 C 296.253906 10.09375 294.023438 9.789062 291.792969 9.648438 C 293.546875 8.410156 295.304688 7.179688 297.007812 5.875 C 298.101562 5.03125 296.6875 3.257812 295.53125 3.976562 C 293.40625 5.308594 291.355469 6.765625 289.347656 8.28125 C 289.527344 5.789062 289.53125 3.214844 288.878906 0.878906 C 288.632812 0 287.460938 0.265625 287.371094 1.082031 C 287.132812 3.242188 286.898438 5.394531 286.644531 7.550781 C 284.539062 5.394531 281.296875 2.699219 278.492188 4.003906 C 278.09375 4.1875 278.113281 4.726562 278.363281 5.007812 C 279.402344 6.175781 281.214844 6.84375 282.457031 7.820312 C 283.105469 8.332031 283.703125 8.898438 284.273438 9.5 C 281.714844 9.511719 279.0625 9.644531 276.75 10.367188 C 276.117188 10.5625 275.988281 11.644531 276.75 11.765625 C 279.3125 12.175781 282.019531 11.992188 284.667969 11.921875 C 282.214844 13.875 279.765625 15.964844 277.917969 18.449219 C 277.183594 19.4375 278.714844 20.4375 279.550781 19.699219 C 281.617188 17.875 283.609375 16.003906 285.710938 14.238281 C 285.292969 16.746094 284.871094 19.304688 284.96875 21.773438 C 285.035156 23.425781 287.796875 24 288.046875 22.1875 C 288.378906 19.765625 288.5625 17.308594 288.761719 14.855469 C 290.269531 16.609375 291.90625 18.246094 293.9375 19.410156 C 295.71875 20.433594 297.320312 17.703125 295.546875 16.675781 C 293.570312 15.535156 292.023438 13.851562 290.554688 12.09375 C 292.953125 12.285156 295.332031 12.636719 297.675781 13.242188 C 299.300781 13.667969 299.964844 11.246094 298.363281 10.746094 Z M 298.363281 10.746094 " fill-opacity="1" fill-rule="nonzero"/></g><g clip-path="url(#f80b538143)"><path fill="#f5faf8" d="M 261.421875 335.246094 C 259.3125 334.59375 257.082031 334.289062 254.851562 334.144531 C 256.605469 332.910156 258.363281 331.679688 260.066406 330.371094 C 261.160156 329.53125 259.746094 327.757812 258.589844 328.476562 C 256.464844 329.804688 254.414062 331.265625 252.40625 332.78125 C 252.585938 330.289062 252.589844 327.710938 251.9375 325.378906 C 251.691406 324.5 250.519531 324.765625 250.429688 325.582031 C 250.195312 327.738281 249.957031 329.894531 249.703125 332.046875 C 247.597656 329.894531 244.355469 327.195312 241.550781 328.503906 C 241.152344 328.6875 241.171875 329.226562 241.421875 329.507812 C 242.460938 330.675781 244.273438 331.34375 245.515625 332.320312 C 246.164062 332.828125 246.761719 333.394531 247.332031 334 C 244.773438 334.007812 242.121094 334.140625 239.808594 334.863281 C 239.175781 335.0625 239.046875 336.144531 239.808594 336.265625 C 242.371094 336.671875 245.078125 336.488281 247.726562 336.421875 C 245.273438 338.371094 242.824219 340.460938 240.976562 342.949219 C 240.242188 343.9375 241.773438 344.9375 242.609375 344.199219 C 244.675781 342.371094 246.667969 340.503906 248.769531 338.734375 C 248.351562 341.246094 247.929688 343.804688 248.027344 346.269531 C 248.09375 347.921875 250.855469 348.5 251.105469 346.683594 C 251.4375 344.265625 251.621094 341.804688 251.820312 339.351562 C 253.328125 341.105469 254.964844 342.746094 256.996094 343.910156 C 258.777344 344.929688 260.378906 342.203125 258.605469 341.175781 C 256.628906 340.035156 255.082031 338.347656 253.617188 336.589844 C 256.011719 336.785156 258.390625 337.132812 260.734375 337.742188 C 262.359375 338.164062 263.023438 335.742188 261.421875 335.246094 Z M 261.421875 335.246094 " fill-opacity="1" fill-rule="nonzero"/></g><g clip-path="url(#217649b3e7)"><path fill="#f5faf8" d="M 63.328125 335.246094 C 61.21875 334.59375 58.988281 334.289062 56.757812 334.144531 C 58.511719 332.910156 60.269531 331.679688 61.96875 330.371094 C 63.0625 329.53125 61.648438 327.757812 60.496094 328.476562 C 58.371094 329.804688 56.316406 331.265625 54.308594 332.78125 C 54.492188 330.289062 54.496094 327.710938 53.839844 325.378906 C 53.597656 324.5 52.421875 324.765625 52.335938 325.582031 C 52.097656 327.738281 51.863281 329.894531 51.605469 332.046875 C 49.5 329.894531 46.261719 327.195312 43.457031 328.503906 C 43.058594 328.6875 43.074219 329.226562 43.324219 329.507812 C 44.363281 330.675781 46.175781 331.34375 47.417969 332.320312 C 48.070312 332.828125 48.667969 333.394531 49.238281 334 C 46.679688 334.007812 44.027344 334.140625 41.710938 334.863281 C 41.082031 335.0625 40.953125 336.144531 41.710938 336.265625 C 44.277344 336.671875 46.984375 336.488281 49.632812 336.421875 C 47.179688 338.371094 44.730469 340.460938 42.878906 342.949219 C 42.148438 343.9375 43.679688 344.9375 44.511719 344.199219 C 46.582031 342.371094 48.574219 340.503906 50.675781 338.734375 C 50.257812 341.246094 49.835938 343.804688 49.933594 346.269531 C 49.996094 347.921875 52.761719 348.5 53.011719 346.683594 C 53.339844 344.265625 53.527344 341.804688 53.726562 339.351562 C 55.234375 341.105469 56.871094 342.746094 58.898438 343.910156 C 60.679688 344.929688 62.285156 342.203125 60.507812 341.175781 C 58.535156 340.035156 56.984375 338.347656 55.519531 336.589844 C 57.917969 336.785156 60.296875 337.132812 62.636719 337.742188 C 64.265625 338.164062 64.929688 335.742188 63.328125 335.246094 Z M 63.328125 335.246094 " fill-opacity="1" fill-rule="nonzero"/></g><g clip-path="url(#b59a028c82)"><path fill="#f5faf8" d="M 160.375 260.316406 C 158.265625 259.664062 156.035156 259.359375 153.804688 259.21875 C 155.558594 257.980469 157.316406 256.75 159.019531 255.441406 C 160.113281 254.601562 158.699219 252.828125 157.542969 253.546875 C 155.421875 254.875 153.367188 256.335938 151.359375 257.851562 C 151.539062 255.359375 151.542969 252.78125 150.890625 250.449219 C 150.644531 249.570312 149.472656 249.835938 149.382812 250.652344 C 149.148438 252.808594 148.910156 254.964844 148.65625 257.117188 C 146.550781 254.964844 143.308594 252.265625 140.503906 253.574219 C 140.105469 253.757812 140.125 254.296875 140.375 254.578125 C 141.414062 255.746094 143.226562 256.414062 144.46875 257.390625 C 145.117188 257.902344 145.714844 258.46875 146.285156 259.070312 C 143.726562 259.078125 141.074219 259.210938 138.761719 259.933594 C 138.128906 260.132812 138 261.214844 138.761719 261.335938 C 141.324219 261.746094 144.03125 261.558594 146.679688 261.492188 C 144.226562 263.441406 141.777344 265.53125 139.929688 268.019531 C 139.195312 269.007812 140.726562 270.007812 141.5625 269.269531 C 143.628906 267.441406 145.621094 265.574219 147.722656 263.804688 C 147.304688 266.316406 146.882812 268.875 146.980469 271.339844 C 147.046875 272.992188 149.808594 273.570312 150.058594 271.757812 C 150.390625 269.335938 150.574219 266.875 150.773438 264.421875 C 152.28125 266.175781 153.917969 267.816406 155.949219 268.980469 C 157.730469 270.003906 159.332031 267.273438 157.558594 266.246094 C 155.582031 265.105469 154.035156 263.417969 152.570312 261.660156 C 154.964844 261.855469 157.34375 262.203125 159.6875 262.8125 C 161.3125 263.234375 161.976562 260.816406 160.375 260.316406 Z M 160.375 260.316406 " fill-opacity="1" fill-rule="nonzero"/></g></svg>