<svg xmlns="http://www.w3.org/2000/svg" xmlns:xlink="http://www.w3.org/1999/xlink" width="300" zoomAndPan="magnify" viewBox="0 0 224.87999 225" height="300" preserveAspectRatio="xMidYMid meet" version="1.0"><defs><g/><clipPath id="a04e583d02"><path d="M 74 72 L 154 72 L 154 109.589844 L 74 109.589844 Z M 74 72 " clip-rule="nonzero"/></clipPath><clipPath id="97b8af53ed"><path d="M 117 38.378906 L 124 38.378906 L 124 65 L 117 65 Z M 117 38.378906 " clip-rule="nonzero"/></clipPath><clipPath id="c1eec6c1fa"><path d="M 37.140625 103 L 64 103 L 64 109 L 37.140625 109 Z M 37.140625 103 " clip-rule="nonzero"/></clipPath><clipPath id="4b5106c9c3"><path d="M 161 102 L 193.808594 102 L 193.808594 109 L 161 109 Z M 161 102 " clip-rule="nonzero"/></clipPath><clipPath id="1701fe473a"><path d="M 71 73.984375 L 160.203125 73.984375 L 160.203125 163.183594 L 71 163.183594 Z M 71 73.984375 " clip-rule="nonzero"/></clipPath><clipPath id="7c0220836e"><path d="M 78.765625 69.882812 L 152.226562 69.882812 L 152.226562 144.839844 L 78.765625 144.839844 Z M 78.765625 69.882812 " clip-rule="nonzero"/></clipPath><clipPath id="6d8313c4cc"><path d="M 90.386719 87.683594 L 140.609375 87.683594 L 140.609375 113.167969 L 90.386719 113.167969 Z M 90.386719 87.683594 " clip-rule="nonzero"/></clipPath><clipPath id="bdeba949ab"><path d="M 66.847656 118.589844 L 160.546875 118.589844 L 160.546875 171.808594 L 66.847656 171.808594 Z M 66.847656 118.589844 " clip-rule="nonzero"/></clipPath></defs><g clip-path="url(#a04e583d02)"><path fill="#fbb540" d="M 142.941406 88.285156 C 139.832031 84.316406 136.292969 80.617188 132.039062 77.921875 C 122.878906 72.101562 110.882812 71.523438 100.769531 75.453125 C 90.65625 79.382812 82.441406 87.492188 77.351562 97.089844 C 75.320312 100.921875 73.738281 105.285156 74.070312 109.53125 L 153.414062 109.53125 C 151.824219 101.804688 147.847656 94.542969 142.941406 88.285156 Z M 142.941406 88.285156 " fill-opacity="1" fill-rule="nonzero"/></g><path fill="#fab057" d="M 148.941406 43.558594 C 147.558594 43.464844 146.792969 43.832031 146.375 44.753906 C 146.210938 45.066406 146.148438 45.402344 146.085938 45.734375 C 144.917969 49.214844 143.789062 52.921875 141.980469 57.824219 C 141.472656 59.5 140.714844 62.050781 139.699219 65.039062 C 139.429688 65.859375 139.214844 66.695312 139.039062 67.558594 C 138.898438 68.34375 139.085938 69.339844 139.910156 69.703125 C 140.796875 70.046875 141.429688 68.847656 141.914062 68.199219 C 142.800781 66.949219 145.363281 62.148438 146.890625 58.726562 C 148.03125 56.230469 148.988281 53.644531 149.738281 50.949219 C 150.199219 49.191406 150.910156 47.429688 150.976562 45.453125 C 151 44.328125 150.144531 43.679688 148.941406 43.558594 Z M 148.941406 43.558594 " fill-opacity="1" fill-rule="nonzero"/><g clip-path="url(#97b8af53ed)"><path fill="#f6619b" d="M 120.964844 38.464844 C 119.59375 38.535156 118.871094 39.03125 118.648438 40.066406 C 118.554688 40.410156 118.558594 40.757812 118.570312 41.097656 C 118.273438 44.71875 118.328125 48.363281 117.863281 53.246094 C 117.816406 54.882812 117.738281 57.378906 117.40625 60.304688 C 117.328125 61.105469 117.28125 61.910156 117.292969 62.730469 C 117.308594 63.472656 117.675781 64.359375 118.546875 64.585938 C 119.476562 64.78125 119.886719 63.539062 120.230469 62.839844 C 120.535156 62.167969 121.078125 60.582031 121.578125 58.703125 C 122.082031 56.828125 122.546875 54.664062 122.835938 52.890625 C 123.277344 50.289062 123.46875 47.648438 123.457031 45.019531 C 123.425781 43.304688 123.617188 41.542969 123.296875 39.832031 C 123.101562 38.878906 122.183594 38.445312 120.964844 38.464844 Z M 120.964844 38.464844 " fill-opacity="1" fill-rule="nonzero"/></g><path fill="#9edfdf" d="M 85.246094 41.96875 C 84.746094 42.4375 84.441406 42.898438 84.300781 43.34375 C 84.164062 43.789062 84.1875 44.191406 84.402344 44.734375 C 84.527344 45.09375 84.738281 45.371094 84.945312 45.699219 C 85.929688 47.472656 86.917969 49.257812 87.996094 51.199219 C 89.097656 53.15625 90.304688 55.28125 91.621094 57.761719 C 92.589844 59.363281 94.09375 61.789062 95.714844 64.714844 C 96.160156 65.511719 96.660156 66.285156 97.175781 67.03125 C 97.675781 67.703125 98.5 68.28125 99.355469 67.980469 C 100.238281 67.613281 99.773438 66.191406 99.601562 65.34375 C 99.257812 63.71875 97.191406 58.253906 95.523438 54.625 C 94.328125 51.953125 92.957031 49.363281 91.40625 46.847656 C 90.382812 45.21875 89.527344 43.421875 88.101562 41.902344 C 87.722656 41.492188 87.183594 41.273438 86.6875 41.300781 C 86.1875 41.320312 85.703125 41.566406 85.246094 41.96875 Z M 85.246094 41.96875 " fill-opacity="1" fill-rule="nonzero"/><path fill="#b48bbe" d="M 56.699219 62.097656 C 56.027344 63.304688 56.128906 64.210938 57.023438 65.023438 C 57.316406 65.3125 57.652344 65.511719 57.996094 65.707031 C 61.394531 68.128906 65.007812 70.253906 69.609375 73.519531 C 71.203125 74.523438 73.628906 76.046875 76.375 78.019531 C 77.132812 78.546875 77.910156 79.050781 78.726562 79.511719 C 79.46875 79.921875 80.511719 80.089844 81.125 79.433594 C 81.738281 78.703125 80.703125 77.636719 80.175781 76.9375 C 79.164062 75.609375 74.878906 71.488281 71.683594 68.957031 C 69.367188 67.074219 66.90625 65.378906 64.351562 63.851562 C 62.675781 62.871094 61.074219 61.667969 59.257812 60.933594 C 58.234375 60.535156 57.328125 61.058594 56.699219 62.097656 Z M 56.699219 62.097656 " fill-opacity="1" fill-rule="nonzero"/><path fill="#fab057" d="M 38.464844 83.667969 C 38.234375 85.035156 38.609375 85.84375 39.78125 86.375 C 40.167969 86.566406 40.578125 86.65625 40.996094 86.75 C 45.273438 88.101562 49.730469 89.085938 55.691406 90.519531 C 57.707031 90.886719 60.773438 91.449219 64.382812 92.109375 C 65.375 92.285156 66.375 92.40625 67.402344 92.464844 C 68.324219 92.511719 69.441406 92.175781 69.636719 91.296875 C 69.800781 90.359375 68.324219 89.914062 67.492188 89.503906 C 65.890625 88.789062 59.964844 86.761719 55.871094 85.496094 C 52.875 84.554688 49.835938 83.765625 46.761719 83.089844 C 44.757812 82.667969 42.765625 81.984375 40.667969 81.796875 C 39.496094 81.699219 38.703125 82.480469 38.464844 83.667969 Z M 38.464844 83.667969 " fill-opacity="1" fill-rule="nonzero"/><g clip-path="url(#c1eec6c1fa)"><path fill="#f6619b" d="M 37.140625 106.058594 C 37.199219 107.4375 37.6875 108.160156 38.734375 108.382812 C 39.082031 108.472656 39.429688 108.460938 39.773438 108.445312 C 43.429688 108.664062 47.101562 108.40625 52.042969 108.207031 C 53.6875 108.03125 56.183594 107.726562 59.125 107.445312 C 59.925781 107.363281 60.730469 107.21875 61.527344 107.027344 C 62.25 106.835938 63.019531 106.269531 63.023438 105.367188 C 62.984375 104.414062 61.710938 104.316406 60.972656 104.136719 C 59.5625 103.832031 54.5 103.4375 51.039062 103.316406 C 48.5 103.210938 45.972656 103.261719 43.445312 103.417969 C 41.800781 103.535156 40.105469 103.394531 38.464844 103.726562 C 37.550781 103.921875 37.128906 104.84375 37.140625 106.058594 Z M 37.140625 106.058594 " fill-opacity="1" fill-rule="nonzero"/></g><path fill="#9edfdf" d="M 174.011719 62.375 C 173.554688 61.082031 172.785156 60.570312 171.523438 60.820312 C 171.109375 60.894531 170.738281 61.066406 170.363281 61.238281 C 166.359375 62.808594 162.867188 65.148438 158.257812 68.25 C 156.804688 69.382812 154.59375 71.101562 151.992188 73.128906 C 151.289062 73.679688 150.613281 74.269531 149.96875 74.894531 C 149.394531 75.476562 148.964844 76.398438 149.417969 77.179688 C 149.929688 77.980469 151.207031 77.324219 152 77.039062 C 153.503906 76.46875 158.449219 73.730469 161.75 71.839844 C 164.183594 70.464844 166.539062 69.003906 168.863281 67.582031 C 170.378906 66.648438 172.050781 65.964844 173.476562 65.050781 C 174.257812 64.554688 174.378906 63.542969 174.011719 62.375 Z M 174.011719 62.375 " fill-opacity="1" fill-rule="nonzero"/><path fill="#b48bbe" d="M 192.382812 85.882812 C 192.292969 84.761719 191.507812 84.203125 189.941406 84.222656 C 189.421875 84.214844 188.90625 84.289062 188.40625 84.378906 C 183.050781 84.980469 177.796875 86.152344 170.726562 87.714844 C 168.390625 88.335938 164.855469 89.304688 160.683594 90.496094 C 159.546875 90.839844 158.425781 91.210938 157.308594 91.675781 C 156.304688 92.082031 155.285156 92.902344 155.488281 93.609375 C 155.75 94.347656 157.503906 93.917969 158.574219 93.816406 C 160.582031 93.535156 167.808594 92.28125 172.75 91.433594 C 176.375 90.8125 179.980469 90.097656 183.566406 89.355469 C 185.898438 88.851562 188.332031 88.582031 190.609375 88.015625 C 191.878906 87.6875 192.40625 86.902344 192.382812 85.882812 Z M 192.382812 85.882812 " fill-opacity="1" fill-rule="nonzero"/><g clip-path="url(#4b5106c9c3)"><path fill="#f6619b" d="M 193.742188 106.554688 C 193.796875 105.335938 193.257812 104.648438 191.996094 104.355469 C 191.574219 104.242188 191.148438 104.21875 190.726562 104.195312 C 186.265625 103.628906 181.742188 103.429688 175.675781 102.863281 C 173.648438 102.769531 170.558594 102.644531 166.933594 102.359375 C 165.941406 102.292969 164.945312 102.261719 163.941406 102.28125 C 163.03125 102.304688 162 102.65625 161.847656 103.441406 C 161.738281 104.28125 163.28125 104.617188 164.15625 104.914062 C 165.832031 105.460938 172.003906 106.707031 176.273438 107.3125 C 179.394531 107.78125 182.535156 108.078125 185.6875 108.234375 C 187.738281 108.320312 189.832031 108.625 191.890625 108.492188 C 193.039062 108.40625 193.648438 107.632812 193.742188 106.554688 Z M 193.742188 106.554688 " fill-opacity="1" fill-rule="nonzero"/></g><g clip-path="url(#1701fe473a)"><path fill="#ffffff" d="M 115.601562 73.984375 C 90.96875 73.984375 71 93.953125 71 118.585938 C 71 143.214844 90.96875 163.183594 115.601562 163.183594 C 140.234375 163.183594 160.203125 143.214844 160.203125 118.585938 C 160.203125 93.953125 140.234375 73.984375 115.601562 73.984375 " fill-opacity="1" fill-rule="nonzero"/></g><g clip-path="url(#7c0220836e)"><path fill="#ffdc2b" d="M 115.496094 69.882812 C 95.210938 69.882812 78.765625 86.660156 78.765625 107.359375 C 78.765625 128.058594 95.210938 144.839844 115.496094 144.839844 C 135.785156 144.839844 152.226562 128.058594 152.226562 107.359375 C 152.226562 86.660156 135.785156 69.882812 115.496094 69.882812 " fill-opacity="1" fill-rule="nonzero"/></g><g clip-path="url(#6d8313c4cc)"><path fill="#ffdc2b" d="M 97.550781 77.347656 C 97.15625 77.765625 96.777344 78.195312 96.410156 78.636719 C 95.84375 79.328125 95.316406 80.050781 94.828125 80.800781 C 93.179688 83.335938 92.019531 86.195312 91.511719 89.265625 C 90.433594 95.757812 90.433594 103.769531 93.511719 109.738281 C 96.109375 114.769531 100.664062 119.234375 105.917969 121.398438 C 108.855469 122.609375 112.445312 123.382812 115.632812 123.382812 C 126.597656 123.382812 137.515625 115.328125 139.617188 104.300781 C 140.222656 101.140625 140.550781 97.574219 140.386719 94.050781 C 140.214844 90.292969 139.488281 86.582031 137.941406 83.453125 C 135.398438 78.292969 130.820312 73.683594 125.496094 71.453125 C 122.523438 70.207031 118.867188 69.410156 115.632812 69.410156 C 111.496094 69.410156 107.421875 70.535156 103.828125 72.507812 C 103.429688 72.726562 103.042969 72.953125 102.660156 73.1875 C 101.953125 73.625 101.269531 74.097656 100.609375 74.601562 " fill-opacity="1" fill-rule="nonzero"/></g><path fill="#000000" d="M 132.503906 100.539062 C 132.515625 98.210938 130.945312 96.046875 128.546875 95.792969 C 125.8125 95.503906 124.453125 98.011719 124.464844 100.421875 C 124.46875 101.433594 126.03125 101.433594 126.023438 100.421875 C 126.015625 98.867188 126.613281 97.230469 128.417969 97.34375 C 130.023438 97.449219 130.949219 99.089844 130.941406 100.539062 C 130.9375 101.546875 132.496094 101.546875 132.503906 100.539062 " fill-opacity="1" fill-rule="nonzero"/><path fill="#000000" d="M 105.96875 100.539062 C 105.980469 98.210938 104.410156 96.046875 102.011719 95.792969 C 99.277344 95.503906 97.917969 98.011719 97.925781 100.421875 C 97.933594 101.433594 99.492188 101.433594 99.488281 100.421875 C 99.480469 98.867188 100.078125 97.230469 101.882812 97.34375 C 103.488281 97.449219 104.414062 99.089844 104.40625 100.539062 C 104.398438 101.546875 105.960938 101.546875 105.96875 100.539062 " fill-opacity="1" fill-rule="nonzero"/><path fill="#ff7e50" d="M 133.441406 103.292969 C 132.6875 102.484375 131.382812 102.035156 130.300781 102.023438 C 129.390625 102.015625 128.628906 102.457031 128.15625 103.121094 C 127.832031 103.242188 127.566406 103.453125 127.339844 103.765625 C 126.5625 104.8125 126.90625 106.414062 127.738281 107.308594 C 128.949219 108.605469 131.429688 108.613281 132.980469 108.011719 C 133.769531 107.707031 134.289062 106.914062 134.382812 106.085938 C 134.507812 105 134.171875 104.078125 133.441406 103.292969 " fill-opacity="1" fill-rule="nonzero"/><path fill="#ff7e50" d="M 103.394531 103.292969 C 102.640625 102.484375 101.335938 102.035156 100.253906 102.023438 C 99.347656 102.015625 98.585938 102.457031 98.109375 103.121094 C 97.785156 103.242188 97.523438 103.453125 97.292969 103.765625 C 96.519531 104.8125 96.859375 106.414062 97.695312 107.308594 C 98.902344 108.605469 101.386719 108.613281 102.933594 108.011719 C 103.726562 107.707031 104.246094 106.914062 104.339844 106.085938 C 104.460938 105 104.128906 104.078125 103.394531 103.292969 " fill-opacity="1" fill-rule="nonzero"/><path fill="#000000" d="M 101.828125 105.96875 C 105.535156 109.882812 111.28125 111.59375 116.539062 111.699219 C 121.839844 111.804688 127.515625 109.945312 130.382812 105.203125 C 130.90625 104.335938 129.558594 103.550781 129.035156 104.414062 C 126.398438 108.769531 121.144531 110.226562 116.332031 110.128906 C 111.554688 110.03125 106.292969 108.410156 102.933594 104.863281 C 102.238281 104.128906 101.136719 105.238281 101.828125 105.96875 " fill-opacity="1" fill-rule="nonzero"/><g clip-path="url(#bdeba949ab)"><path fill="#ffffff" d="M 66.847656 118.589844 L 160.542969 118.589844 L 160.542969 171.808594 L 66.847656 171.808594 L 66.847656 118.589844 " fill-opacity="1" fill-rule="nonzero"/></g><g fill="#7badb2" fill-opacity="1"><g transform="translate(62.266178, 152.280516)"><g><path d="M 6.039062 -12.726562 C 6.113281 -14.066406 6.078125 -15.289062 6.382812 -16.472656 C 6.496094 -16.894531 6.613281 -17.351562 6.726562 -17.773438 C 6.839844 -18.15625 6.996094 -18.5 7.148438 -18.878906 C 7.375 -19.453125 7.683594 -20.027344 8.140625 -20.484375 C 9.019531 -21.289062 10.050781 -21.785156 11.273438 -21.785156 C 11.960938 -21.785156 12.574219 -21.480469 13.070312 -20.984375 C 13.222656 -20.792969 13.414062 -20.601562 13.566406 -20.449219 C 13.910156 -20.140625 14.332031 -19.988281 14.753906 -20.105469 C 15.136719 -20.179688 15.515625 -20.292969 15.859375 -20.523438 C 16.320312 -20.828125 16.816406 -21.171875 17.199219 -21.632812 C 17.351562 -21.863281 17.503906 -22.089844 17.503906 -22.398438 C 17.542969 -23.238281 17.351562 -23.964844 16.585938 -24.5 C 16.28125 -24.726562 15.976562 -24.996094 15.671875 -25.226562 C 14.714844 -25.988281 13.683594 -26.5625 12.496094 -26.832031 C 11.773438 -27.019531 11.007812 -27.058594 10.242188 -26.945312 C 9.898438 -26.90625 9.554688 -26.792969 9.25 -26.675781 C 8.101562 -26.257812 6.996094 -25.796875 6.039062 -25.035156 C 5.199219 -24.347656 4.394531 -23.582031 3.746094 -22.664062 C 3.171875 -21.898438 2.789062 -21.019531 2.445312 -20.140625 C 2.253906 -19.644531 2.101562 -19.148438 1.949219 -18.652344 C 1.71875 -17.964844 1.527344 -17.273438 1.414062 -16.550781 C 1.335938 -16.050781 1.335938 -15.554688 1.183594 -15.097656 C 1.109375 -14.980469 1.070312 -14.828125 1.070312 -14.714844 C 0.992188 -13.835938 0.765625 -12.996094 0.800781 -12.152344 C 0.800781 -11.617188 0.839844 -11.082031 0.917969 -10.546875 C 0.957031 -10.011719 1.070312 -9.441406 1.183594 -8.90625 C 1.261719 -8.5625 1.300781 -8.21875 1.375 -7.875 C 1.527344 -7.339844 1.71875 -6.839844 1.871094 -6.304688 C 1.949219 -6.113281 2.027344 -5.886719 2.101562 -5.695312 C 2.523438 -4.96875 2.941406 -4.28125 3.324219 -3.59375 C 3.632812 -3.019531 4.011719 -2.484375 4.433594 -2.027344 C 4.96875 -1.453125 5.542969 -0.957031 6.230469 -0.574219 C 6.421875 -0.457031 6.648438 -0.382812 6.839844 -0.304688 C 7.339844 -0.113281 7.796875 0.0390625 8.253906 0.152344 C 8.789062 0.304688 9.324219 0.421875 9.898438 0.457031 C 10.359375 0.457031 10.855469 0.457031 11.3125 0.457031 C 12.078125 0.421875 12.804688 0.34375 13.53125 0.152344 C 14.5625 -0.078125 15.480469 -0.535156 16.394531 -1.109375 C 16.664062 -1.261719 16.929688 -1.453125 17.160156 -1.644531 C 17.390625 -1.871094 17.582031 -2.101562 17.773438 -2.332031 C 18.078125 -2.675781 18.230469 -3.097656 18.269531 -3.59375 C 18.308594 -4.050781 18.15625 -4.472656 17.734375 -4.777344 C 17.3125 -5.082031 16.929688 -5.425781 16.433594 -5.617188 C 15.9375 -5.808594 15.402344 -5.886719 14.90625 -5.734375 C 14.445312 -5.582031 14.066406 -5.351562 13.722656 -5.007812 C 13.644531 -4.890625 13.492188 -4.816406 13.375 -4.816406 C 13.03125 -4.777344 12.765625 -4.664062 12.421875 -4.546875 C 12.230469 -4.511719 12 -4.472656 11.773438 -4.433594 C 11.3125 -4.394531 10.855469 -4.511719 10.433594 -4.664062 C 10.167969 -4.738281 9.898438 -4.855469 9.667969 -5.007812 C 9.324219 -5.234375 8.980469 -5.503906 8.597656 -5.769531 C 8.21875 -6.039062 7.875 -6.34375 7.683594 -6.804688 C 7.53125 -7.070312 7.339844 -7.339844 7.183594 -7.605469 C 6.957031 -8.179688 6.726562 -8.753906 6.535156 -9.324219 C 6.382812 -9.746094 6.230469 -10.128906 6.191406 -10.546875 C 6.113281 -11.3125 6.078125 -12.078125 6.039062 -12.726562 Z M 6.039062 -12.726562 "/></g></g></g><g fill="#7badb2" fill-opacity="1"><g transform="translate(82.672147, 152.280516)"><g><path d="M 17.925781 -13.109375 C 17.925781 -13.109375 17.964844 -13.109375 17.964844 -13.109375 C 17.925781 -13.796875 17.925781 -14.484375 17.886719 -15.136719 C 17.847656 -17.3125 17.773438 -19.453125 17.734375 -21.59375 C 17.695312 -22.777344 17.65625 -23.964844 17.65625 -25.1875 C 17.65625 -25.53125 17.582031 -25.796875 17.429688 -26.105469 C 17.085938 -26.832031 16.472656 -27.058594 15.746094 -27.136719 C 15.019531 -27.175781 14.332031 -27.019531 13.605469 -26.867188 C 13.1875 -26.753906 12.804688 -26.371094 12.765625 -25.914062 C 12.726562 -25.453125 12.6875 -24.996094 12.652344 -24.539062 C 12.652344 -22.550781 12.652344 -20.5625 12.652344 -18.574219 C 12.652344 -18.382812 12.652344 -18.15625 12.652344 -17.964844 C 12.613281 -17.503906 12.34375 -17.199219 11.886719 -17.160156 C 11.464844 -17.085938 11.046875 -17.007812 10.625 -17.007812 C 9.59375 -16.96875 8.597656 -16.929688 7.605469 -17.046875 C 7.070312 -17.085938 6.726562 -17.503906 6.726562 -18 C 6.726562 -19.035156 6.804688 -20.105469 6.839844 -21.171875 C 6.878906 -22.742188 6.839844 -24.308594 6.839844 -25.875 C 6.839844 -26.140625 6.726562 -26.296875 6.535156 -26.449219 C 6.304688 -26.601562 6 -26.714844 5.695312 -26.753906 C 5.3125 -26.753906 4.929688 -26.714844 4.585938 -26.867188 C 4.546875 -26.867188 4.472656 -26.867188 4.433594 -26.867188 C 3.9375 -26.867188 3.441406 -26.832031 2.941406 -26.714844 C 2.484375 -26.601562 2.214844 -26.371094 2.027344 -25.953125 C 1.796875 -25.378906 1.644531 -24.765625 1.644531 -24.15625 C 1.605469 -22.933594 1.566406 -21.707031 1.566406 -20.484375 C 1.527344 -18.382812 1.527344 -16.28125 1.527344 -14.21875 C 1.527344 -13.03125 1.566406 -11.808594 1.605469 -10.625 C 1.644531 -8.945312 1.683594 -7.261719 1.644531 -5.617188 C 1.644531 -3.976562 1.566406 -2.371094 1.527344 -0.765625 C 1.527344 -0.304688 1.71875 0.078125 2.0625 0.34375 C 2.484375 0.648438 2.941406 0.839844 3.476562 0.800781 C 4.203125 0.800781 4.929688 0.6875 5.65625 0.648438 C 5.925781 0.613281 6.078125 0.457031 6.191406 0.230469 C 6.382812 -0.191406 6.535156 -0.648438 6.574219 -1.148438 C 6.613281 -1.871094 6.648438 -2.636719 6.648438 -3.402344 C 6.648438 -4.96875 6.6875 -6.535156 6.6875 -8.101562 C 6.6875 -8.828125 6.648438 -9.59375 6.648438 -10.320312 C 6.648438 -10.738281 6.804688 -11.082031 7.070312 -11.390625 C 7.148438 -11.464844 7.261719 -11.582031 7.375 -11.582031 C 7.835938 -11.695312 8.292969 -11.808594 8.753906 -11.847656 C 9.707031 -11.886719 10.625 -11.886719 11.582031 -11.925781 C 12 -11.925781 12.269531 -11.734375 12.460938 -11.351562 C 12.652344 -10.96875 12.765625 -10.585938 12.726562 -10.128906 C 12.726562 -9.363281 12.726562 -8.5625 12.765625 -7.796875 C 12.804688 -5.734375 12.84375 -3.632812 12.957031 -1.566406 C 12.996094 -1.148438 13.03125 -0.765625 13.1875 -0.382812 C 13.300781 0 13.566406 0.34375 14.027344 0.382812 C 15.136719 0.457031 16.242188 0.613281 17.351562 0.457031 C 17.621094 0.457031 17.773438 0.34375 17.847656 0.152344 C 18.039062 -0.191406 18.15625 -0.535156 18.15625 -0.917969 C 18.117188 -3.132812 18.078125 -5.351562 18.039062 -7.605469 C 18 -9.441406 17.964844 -11.273438 17.925781 -13.109375 Z M 17.925781 -13.109375 "/></g></g></g><g fill="#7badb2" fill-opacity="1"><g transform="translate(102.619554, 152.280516)"><g><path d="M 6.535156 -22.320312 C 6.535156 -23.390625 6.574219 -24.117188 6.535156 -24.882812 C 6.535156 -25.378906 6.382812 -25.875 6.113281 -26.332031 C 5.960938 -26.601562 5.734375 -26.753906 5.464844 -26.753906 C 4.699219 -26.792969 3.9375 -26.792969 3.171875 -26.832031 C 2.828125 -26.832031 2.5625 -26.675781 2.40625 -26.410156 C 2.101562 -25.953125 1.835938 -25.492188 1.757812 -24.957031 C 1.683594 -24.421875 1.644531 -23.925781 1.644531 -23.390625 C 1.527344 -21.554688 1.566406 -19.722656 1.683594 -17.847656 C 1.757812 -16.816406 1.796875 -15.785156 1.796875 -14.753906 C 1.796875 -12.574219 1.796875 -10.394531 1.796875 -8.179688 C 1.796875 -7.566406 1.757812 -6.917969 1.757812 -6.269531 C 1.71875 -4.96875 1.644531 -3.667969 1.605469 -2.332031 C 1.605469 -1.757812 1.644531 -1.222656 1.910156 -0.726562 C 2.027344 -0.457031 2.214844 -0.191406 2.40625 0 C 2.789062 0.382812 3.324219 0.457031 3.820312 0.457031 C 4.050781 0.496094 4.320312 0.457031 4.546875 0.457031 C 5.082031 0.457031 5.503906 0.265625 5.808594 -0.191406 C 5.925781 -0.382812 6.039062 -0.535156 6.113281 -0.726562 C 6.230469 -0.917969 6.304688 -1.148438 6.304688 -1.335938 C 6.382812 -1.683594 6.382812 -2.0625 6.421875 -2.40625 C 6.460938 -3.171875 6.496094 -3.898438 6.535156 -4.664062 C 6.574219 -5.503906 6.574219 -6.34375 6.613281 -7.148438 C 6.648438 -8.636719 6.726562 -10.089844 6.765625 -11.542969 C 6.765625 -13.414062 6.765625 -15.25 6.765625 -17.121094 C 6.726562 -18.039062 6.726562 -18.957031 6.6875 -19.914062 C 6.648438 -20.828125 6.574219 -21.746094 6.535156 -22.320312 Z M 6.535156 -22.320312 "/></g></g></g><g fill="#7badb2" fill-opacity="1"><g transform="translate(111.026508, 152.280516)"><g><path d="M 20.066406 -13.222656 C 20.105469 -14.292969 19.988281 -15.363281 19.875 -16.433594 C 19.757812 -17.695312 19.453125 -18.917969 19.148438 -20.140625 C 19.148438 -20.21875 19.109375 -20.257812 19.070312 -20.332031 C 18.84375 -20.90625 18.613281 -21.480469 18.382812 -22.015625 C 18.039062 -22.816406 17.65625 -23.621094 17.046875 -24.269531 C 16.433594 -24.957031 15.746094 -25.492188 14.945312 -25.914062 C 14.140625 -26.332031 13.261719 -26.449219 12.382812 -26.488281 C 11.847656 -26.523438 11.273438 -26.449219 10.738281 -26.410156 C 10.511719 -26.410156 10.28125 -26.410156 10.050781 -26.332031 C 9.554688 -26.21875 9.058594 -26.066406 8.5625 -25.875 C 7.757812 -25.53125 7.03125 -25.109375 6.382812 -24.539062 C 5.160156 -23.542969 4.242188 -22.28125 3.667969 -20.792969 C 3.171875 -19.570312 2.75 -18.34375 2.371094 -17.046875 C 1.871094 -15.289062 1.527344 -13.492188 1.527344 -11.65625 C 1.527344 -11.082031 1.527344 -10.511719 1.605469 -9.9375 C 1.683594 -9.210938 1.796875 -8.484375 1.910156 -7.757812 C 2.027344 -7.109375 2.140625 -6.460938 2.371094 -5.808594 C 2.523438 -5.273438 2.675781 -4.699219 2.867188 -4.164062 C 2.941406 -3.859375 3.019531 -3.59375 3.132812 -3.324219 C 3.285156 -2.941406 3.515625 -2.5625 3.707031 -2.179688 C 4.089844 -1.335938 4.777344 -0.726562 5.503906 -0.152344 C 5.886719 0.152344 6.34375 0.34375 6.765625 0.574219 C 7.453125 0.917969 8.140625 1.070312 8.867188 1.03125 C 9.480469 1.03125 10.089844 1.03125 10.703125 0.957031 C 11.238281 0.878906 11.773438 0.839844 12.269531 0.726562 C 13.109375 0.535156 13.949219 0.265625 14.714844 -0.113281 C 15.097656 -0.304688 15.402344 -0.230469 15.671875 0.078125 C 15.976562 0.457031 16.28125 0.839844 16.585938 1.222656 C 16.777344 1.492188 17.046875 1.566406 17.351562 1.605469 C 17.503906 1.605469 17.621094 1.683594 17.773438 1.683594 C 17.964844 1.683594 18.15625 1.71875 18.308594 1.683594 C 18.574219 1.605469 18.917969 1.605469 19.148438 1.414062 C 19.1875 1.375 19.222656 1.375 19.300781 1.375 C 19.378906 1.335938 19.492188 1.300781 19.570312 1.261719 C 20.066406 0.917969 20.449219 0.421875 20.867188 -0.078125 C 20.945312 -0.152344 20.984375 -0.304688 20.984375 -0.421875 C 20.984375 -0.765625 21.019531 -1.148438 20.984375 -1.527344 C 20.945312 -1.949219 20.753906 -2.332031 20.484375 -2.675781 C 19.988281 -3.324219 19.453125 -3.9375 19.109375 -4.699219 C 18.957031 -5.007812 18.917969 -5.3125 18.957031 -5.617188 C 19.070312 -6.191406 19.1875 -6.765625 19.339844 -7.339844 C 19.875 -9.25 20.105469 -11.199219 20.066406 -13.222656 Z M 14.792969 -13.988281 C 14.714844 -13.222656 14.636719 -12.496094 14.601562 -11.734375 C 14.5625 -11.425781 14.371094 -11.238281 14.101562 -11.238281 C 13.757812 -11.238281 13.414062 -11.273438 13.070312 -11.3125 C 12.613281 -11.351562 12.269531 -11.238281 11.886719 -11.007812 C 11.273438 -10.625 10.816406 -10.128906 10.546875 -9.480469 C 10.203125 -8.714844 10.089844 -7.910156 10.242188 -7.109375 C 10.320312 -6.765625 10.546875 -6.460938 10.703125 -6.113281 C 10.855469 -5.847656 10.894531 -5.65625 10.664062 -5.464844 C 10.585938 -5.390625 10.433594 -5.3125 10.320312 -5.273438 C 10.050781 -5.273438 9.824219 -5.273438 9.59375 -5.425781 C 9.210938 -5.65625 8.867188 -5.847656 8.523438 -6.039062 C 8.410156 -6.113281 8.292969 -6.230469 8.253906 -6.34375 C 7.949219 -6.957031 7.644531 -7.605469 7.453125 -8.292969 C 7.300781 -8.867188 7.222656 -9.441406 7.222656 -10.011719 C 7.183594 -10.929688 7.222656 -11.808594 7.300781 -12.726562 C 7.375 -13.222656 7.339844 -13.757812 7.414062 -14.257812 C 7.566406 -15.746094 7.71875 -17.199219 8.179688 -18.652344 C 8.292969 -19.035156 8.445312 -19.453125 8.675781 -19.796875 C 8.980469 -20.292969 9.441406 -20.640625 10.011719 -20.753906 C 10.511719 -20.867188 10.96875 -20.90625 11.464844 -20.828125 C 12 -20.792969 12.460938 -20.601562 12.878906 -20.21875 C 13.414062 -19.722656 13.796875 -19.148438 14.101562 -18.460938 C 14.601562 -17.121094 14.753906 -15.785156 14.753906 -14.371094 C 14.753906 -14.257812 14.753906 -14.140625 14.753906 -13.988281 C 14.753906 -13.988281 14.753906 -13.988281 14.792969 -13.988281 Z M 14.792969 -13.988281 "/></g></g></g><g fill="#7badb2" fill-opacity="1"><g transform="translate(134.48955, 152.280516)"><g><path d="M 17.847656 -17.3125 C 17.886719 -17.3125 17.886719 -17.3125 17.886719 -17.3125 C 17.886719 -19.070312 17.886719 -20.792969 17.886719 -22.550781 C 17.886719 -23.160156 17.886719 -23.734375 17.925781 -24.347656 C 17.964844 -24.917969 17.773438 -25.378906 17.503906 -25.875 C 17.3125 -26.140625 17.085938 -26.371094 16.777344 -26.410156 C 16.433594 -26.523438 16.089844 -26.601562 15.785156 -26.5625 C 15.363281 -26.523438 14.980469 -26.371094 14.601562 -26.257812 C 14.523438 -26.257812 14.445312 -26.179688 14.371094 -26.105469 C 13.835938 -25.378906 13.492188 -24.574219 13.414062 -23.65625 C 13.339844 -23.007812 13.300781 -22.359375 13.261719 -21.707031 C 13.148438 -20.371094 12.996094 -19.070312 12.917969 -17.734375 C 12.804688 -15.441406 12.765625 -13.1875 12.652344 -10.894531 C 12.574219 -9.441406 12.382812 -8.0625 11.925781 -6.6875 C 11.734375 -6.039062 11.464844 -5.425781 11.082031 -4.890625 C 10.894531 -4.585938 10.625 -4.394531 10.320312 -4.28125 C 9.785156 -4.089844 9.25 -4.089844 8.714844 -4.242188 C 8.597656 -4.28125 8.484375 -4.355469 8.371094 -4.394531 C 7.683594 -4.929688 7.222656 -5.617188 6.917969 -6.382812 C 6.613281 -7.148438 6.460938 -7.949219 6.421875 -8.753906 C 6.34375 -9.859375 6.304688 -11.007812 6.304688 -12.117188 C 6.269531 -13.492188 6.304688 -14.867188 6.304688 -16.242188 C 6.304688 -16.550781 6.34375 -16.855469 6.34375 -17.160156 C 6.382812 -17.582031 6.421875 -18 6.421875 -18.421875 C 6.421875 -18.652344 6.421875 -18.84375 6.421875 -19.070312 C 6.460938 -20.449219 6.613281 -21.824219 6.535156 -23.199219 C 6.535156 -23.886719 6.460938 -24.574219 6.230469 -25.1875 C 6.113281 -25.453125 6 -25.722656 5.769531 -25.953125 C 5.273438 -26.523438 4.203125 -26.640625 3.476562 -26.257812 C 2.90625 -25.953125 2.484375 -25.453125 2.371094 -24.804688 C 2.179688 -24.117188 2.027344 -23.429688 1.871094 -22.742188 C 1.835938 -22.625 1.796875 -22.472656 1.796875 -22.320312 C 1.796875 -21.824219 1.757812 -21.328125 1.757812 -20.828125 C 1.683594 -18.574219 1.644531 -16.359375 1.566406 -14.140625 C 1.527344 -12.84375 1.605469 -11.542969 1.757812 -10.28125 C 1.796875 -9.824219 1.835938 -9.363281 1.871094 -8.90625 C 1.910156 -8.484375 1.949219 -8.027344 2.027344 -7.605469 C 2.140625 -6.804688 2.332031 -6.039062 2.523438 -5.273438 C 2.714844 -4.664062 2.90625 -4.011719 3.210938 -3.441406 C 3.402344 -3.097656 3.554688 -2.714844 3.707031 -2.371094 C 3.976562 -1.871094 4.28125 -1.335938 4.738281 -0.957031 C 5.3125 -0.496094 5.960938 -0.078125 6.6875 0.191406 C 7.148438 0.34375 7.683594 0.496094 8.140625 0.6875 C 8.714844 0.917969 9.324219 0.992188 9.9375 0.992188 C 10.585938 0.957031 11.199219 0.917969 11.808594 0.765625 C 12.152344 0.648438 12.496094 0.574219 12.804688 0.496094 C 13.492188 0.265625 14.140625 0 14.636719 -0.535156 C 14.714844 -0.613281 14.828125 -0.6875 14.945312 -0.800781 C 15.097656 -0.957031 15.289062 -1.109375 15.441406 -1.261719 C 16.207031 -2.101562 16.585938 -3.132812 16.894531 -4.164062 C 17.390625 -5.734375 17.582031 -7.375 17.695312 -8.980469 C 17.773438 -10.050781 17.808594 -11.082031 17.808594 -12.152344 C 17.847656 -13.875 17.847656 -15.59375 17.847656 -17.3125 Z M 17.847656 -17.3125 "/></g></g></g><g fill="#7badb2" fill-opacity="1"><g transform="translate(154.207677, 152.280516)"><g><path d="M 6.535156 -22.320312 C 6.535156 -23.390625 6.574219 -24.117188 6.535156 -24.882812 C 6.535156 -25.378906 6.382812 -25.875 6.113281 -26.332031 C 5.960938 -26.601562 5.734375 -26.753906 5.464844 -26.753906 C 4.699219 -26.792969 3.9375 -26.792969 3.171875 -26.832031 C 2.828125 -26.832031 2.5625 -26.675781 2.40625 -26.410156 C 2.101562 -25.953125 1.835938 -25.492188 1.757812 -24.957031 C 1.683594 -24.421875 1.644531 -23.925781 1.644531 -23.390625 C 1.527344 -21.554688 1.566406 -19.722656 1.683594 -17.847656 C 1.757812 -16.816406 1.796875 -15.785156 1.796875 -14.753906 C 1.796875 -12.574219 1.796875 -10.394531 1.796875 -8.179688 C 1.796875 -7.566406 1.757812 -6.917969 1.757812 -6.269531 C 1.71875 -4.96875 1.644531 -3.667969 1.605469 -2.332031 C 1.605469 -1.757812 1.644531 -1.222656 1.910156 -0.726562 C 2.027344 -0.457031 2.214844 -0.191406 2.40625 0 C 2.789062 0.382812 3.324219 0.457031 3.820312 0.457031 C 4.050781 0.496094 4.320312 0.457031 4.546875 0.457031 C 5.082031 0.457031 5.503906 0.265625 5.808594 -0.191406 C 5.925781 -0.382812 6.039062 -0.535156 6.113281 -0.726562 C 6.230469 -0.917969 6.304688 -1.148438 6.304688 -1.335938 C 6.382812 -1.683594 6.382812 -2.0625 6.421875 -2.40625 C 6.460938 -3.171875 6.496094 -3.898438 6.535156 -4.664062 C 6.574219 -5.503906 6.574219 -6.34375 6.613281 -7.148438 C 6.648438 -8.636719 6.726562 -10.089844 6.765625 -11.542969 C 6.765625 -13.414062 6.765625 -15.25 6.765625 -17.121094 C 6.726562 -18.039062 6.726562 -18.957031 6.6875 -19.914062 C 6.648438 -20.828125 6.574219 -21.746094 6.535156 -22.320312 Z M 6.535156 -22.320312 "/></g></g></g></svg>